<svg width="180" height="40" viewBox="0 0 180 40" xmlns="http://www.w3.org/2000/svg" xmlns:xlink="http://www.w3.org/1999/xlink">
  <defs>
    <path id="supersalud-path" d="M 13.07,19.95 C 13.07,21.03 12.18,21.92 11.1,21.92 10.02,21.92 9.13,21.03 9.13,19.95 9.13,18.87 10.02,17.98 11.1,17.98 12.18,17.98 13.07,18.87 13.07,19.95 Z M 50.59,18.87 C 50.59,18.87 50.59,18.87 50.59,18.87 51.58,17.88 52.92,17.38 54.34,17.38 55.45,17.38 56.45,17.75 57.26,18.45 57.54,18.68 57.8,18.96 58.01,19.29 L 58.01,17.58 60.85,17.58 60.85,26.54 58.01,26.54 58.01,24.47 C 57.58,25.33 56.68,26.11 55.45,26.11 52.88,26.11 50.59,23.82 50.59,20.89 50.59,20.08 50.59,19.49 50.59,18.87 Z M 21.96,17.58 21.96,26.54 19.12,26.54 19.12,17.58 21.96,17.58 Z M 48.04,19.95 C 48.04,23.01 45.45,25.56 42.11,25.56 38.77,25.56 36.18,23.01 36.18,19.95 36.18,16.89 38.77,14.34 42.11,14.34 45.45,14.34 48.04,16.89 48.04,19.95 Z M 42.11,16.41 C 40.02,16.41 38.3,18 38.3,19.95 38.3,21.9 40.02,23.49 42.11,23.49 44.2,23.49 45.92,21.9 45.92,19.95 45.92,18 44.2,16.41 42.11,16.41 Z M 11.1,14.34 C 8.13,14.34 5.75,16.63 5.75,19.6 L 5.75,26.54 2.91,26.54 2.91,14.54 5.75,14.54 5.75,16.14 C 6.56,15.11 7.8,14.34 9.17,14.34 9.76,14.34 10.39,14.47 11.02,14.72 L 11.02,14.72 C 11.04,14.72 11.06,14.73 11.08,14.74 11.09,14.71 11.1,14.69 11.1,14.67 11.1,14.56 11.1,14.45 11.1,14.34 Z M 16.1,19.95 C 16.1,21.9 14.38,23.49 12.29,23.49 10.2,23.49 8.48,21.9 8.48,19.95 8.48,18 10.2,16.41 12.29,16.41 14.38,16.41 16.1,18 16.1,19.95 Z M 27.63,14.34 C 28.93,14.34 30.13,14.92 30.85,15.98 L 30.85,14.54 33.69,14.54 33.69,26.54 30.85,26.54 30.85,19.95 C 30.85,18.49 29.89,17.42 28.51,17.42 27.47,17.42 26.54,18.06 26.54,19.16 L 26.54,26.54 23.7,26.54 23.7,18.73 C 23.7,16.1 25.16,14.34 27.63,14.34 Z M 57.65,20.89 C 57.65,22.24 56.49,23.53 54.34,23.53 52.88,23.53 52.28,22.61 52.28,21.6 L 52.28,20.22 C 52.28,19.16 52.92,18.25 54.3,18.25 56.45,18.25 57.65,19.53 57.65,20.89 Z M 21.96,14.54 C 20.88,14.54 19.98,15.43 19.98,16.51 19.98,17.59 20.88,18.48 21.96,18.48 23.04,18.48 23.93,17.59 23.93,16.51 23.93,15.43 23.04,14.54 21.96,14.54 Z" fill="#000"/>
  </defs>
  <g transform="translate(65, 0)">
    <use xlink:href="#supersalud-path"/>
  </g>
  <text x="10" y="24" font-family="Arial, sans-serif" font-size="12" font-weight="bold" fill="#0033A0">VIGILADO</text>
  <line x1="8" y1="28" x2="60" y2="28" stroke="#0033A0" stroke-width="1.5"/>
</svg>
