<svg xmlns="http://www.w3.org/2000/svg" width="56.5" height="49.3" viewBox="0 0 56.5 49.3"><path fill="#00508A" d="M11.5 29.3c0 .5-.5 1-1.2 1s-1.3-.5-1.3-1V19.9c0-.5.5-1 1.2-1 .7 0 1.2.5 1.2 1v9.4zM24.7 21.6c0-1.7-1.3-3-3.1-3s-3.1 1.3-3.1 3v6.7c0 1.7 1.3 3 3.1 3s3.1-1.3 3.1-3v-6.7zm-2.5 7.1c0 .7-.6 1.3-1.4 1.3s-1.4-.6-1.4-1.3v-7.6c0-.7.6-1.3 1.4-1.3s1.4.6 1.4 1.3v7.6zM34.9 21.6c0-1.7-1.3-3-3.1-3s-3.1 1.3-3.1 3v6.7c0 1.7 1.3 3 3.1 3s3.1-1.3 3.1-3v-6.7zm-2.5 7.1c0 .7-.6 1.3-1.4 1.3s-1.4-.6-1.4-1.3v-7.6c0-.7.6-1.3 1.4-1.3s1.4.6 1.4 1.3v7.6zM48.2 21.6c0-1.7-1.3-3-3.1-3s-3.1 1.3-3.1 3v6.7c0 1.7 1.3 3 3.1 3s3.1-1.3 3.1-3v-6.7zm-2.5 7.1c0 .7-.6 1.3-1.4 1.3s-1.4-.6-1.4-1.3v-7.6c0-.7.6-1.3 1.4-1.3s1.4.6 1.4 1.3v7.6z"/><path fill="#679336" d="M51.8 13.5c-1.2 1.3-2.5 2.5-3.8 3.7.1 0 .2-.1.3-.1 1.8-.5 3.1-2.1 3.1-4 0-.1 0-.2-.1-.3m-3.4 3.3c-2.4 2.3-4.8 4.5-7.3 6.6-2.1-2.3-4-4.7-5.8-7.3-2.2 2.1-4.6 4.1-7 5.9-2.3-2.1-4.7-4.2-7.1-6.3-1.5 2-2.8 4-4.1 6.1 4.4 2.8 8.4 6.2 11.5 10.5 2.1-1.9 4-3.9 5.8-6 1.8 2 3.8 3.8 5.8 5.6 2.1-2.3 4.1-4.7 5.8-7.3 2 1.8 4.1 3.4 6.2 4.9 3.2-4.5 6.9-8.3 11.5-11.2-1.2-2.1-2.7-4.1-4.2-6.1zM16.9 14.8c-.1-.1-.2-.2-.3-.3 1.2-1.3 2.5-2.5 3.8-3.7-.1 0-.2.1-.3.1-1.9.5-3.1 2.1-3.1 4 0 .1 0 .2.1.3M.4 13.2c1.2-1.3 2.5-2.5 3.8-3.7-.1 0-.2.1-.3.1-1.9.5-3.1 2.1-3.1 4 0 .1 0 .2.1.3m4.3-3.6C7.2 7.2 9.5 5 12.1 2.9c.9-.7 1.8-1.4 2.7-2 .3.2.5.4.7.7-1.1 1.2-2.2 2.3-3.2 3.5-.7-1-1.5-1.9-2.4-2.7-.3.3-.6.5-.8.8 1 .9 2 1.8 2.9 2.7-.9.8-1.8 1.6-2.6 2.4-.2.1-.3.2-.4.3M51.1 9.6c2.5-2.4 4.8-4.5 7.3-6.6-.9.7-1.8 1.4-2.7 2-.3-.2-.5-.4-.7-.7 1.1-1.2 2.2-2.3 3.2-3.5.7 1 1.5 1.9 2.4 2.7.3-.3.6-.5.8-.8-1-.9-2-1.8-2.9-2.7.9-.8 1.8-1.6 2.6-2.4.2-.1.3-.2.4-.3-2.5 2.4-4.8 4.5-7.3 6.6.9-.7 1.8-1.4 2.7-2-.3-.2-.5-.4-.7-.7 1.1-1.2 2.2-2.3 3.2-3.5.7 1 1.5 1.9 2.4 2.7.3-.3.6-.5.8-.8-1-.9-2-1.8-2.9-2.7.9-.8 1.8-1.6 2.6-2.4.2-.1.3-.2.4-.3M28.3 9.6c2.5-2.4 4.8-4.5 7.3-6.6-.9.7-1.8 1.4-2.7 2-.3-.2-.5-.4-.7-.7 1.1-1.2 2.2-2.3 3.2-3.5.7 1 1.5 1.9 2.4 2.7.3-.3.6-.5.8-.8-1-.9-2-1.8-2.9-2.7.9-.8 1.8-1.6 2.6-2.4.2-.1.3-.2.4-.3-2.5 2.4-4.8 4.5-7.3 6.6.9-.7 1.8-1.4 2.7-2-.3-.2-.5-.4-.7-.7 1.1-1.2 2.2-2.3 3.2-3.5.7 1 1.5 1.9 2.4 2.7.3-.3.6-.5.8-.8-1-.9-2-1.8-2.9-2.7.9-.8 1.8-1.6 2.6-2.4.2-.1.3-.2.4-.3"/></svg>