<?xml version="1.0" encoding="UTF-8"?>
<svg id="Capa_1" data-name="Capa 1" xmlns="http://www.w3.org/2000/svg" viewBox="0 0 100 100">
  <defs>
    <style>
      .cls-1 {
        fill: #00588f;
      }

      .cls-2 {
        fill: none;
        stroke: #acc152;
        stroke-linecap: round;
        stroke-linejoin: round;
        stroke-width: 4px;
      }
    </style>
  </defs>
  <path class="cls-2" d="m6.36,31.01c.06.06,3.87-3.97,3.92-3.92.08.08-3.8,15.42-3.64,15.58.08.08,13.35-13.6,13.47-13.47.13.13-7.45,17.57-7.35,17.67.21.21,17.71-18.04,17.87-17.87.11.11-15.17,22.16-14.96,22.36.18.18,20.26-20.7,20.48-20.48.19.19-16.5,29.16-16.32,29.33.49.49,50.58-51.82,51.2-51.2.53.53-45.2,53.17-44.72,53.65.65.65,52.87-54.48,53.68-53.68.32.32-49.58,58.6-48.81,59.37.85.85,54.78-56.13,55.46-55.46.8.8-49.15,61.76-48.62,62.3.5.5,54.32-55.23,54.77-54.77.61.61-46.14,56.31-45.86,56.59.47.47,43.36-44.3,43.83-43.83.3.3-39.86,48.04-39.49,48.42.2.2,37.64-38.65,38.15-38.15.2.2-31.18,38.33-30.97,38.55.25.25,23.44-23.85,23.64-23.64"/>
  <g>
    <path class="cls-1" d="m30.26,91.05h7.84c0-1.1,0-2.16,0-3.23,0-3.86.06-7.72-.03-11.58-.07-2.94,2.28-4.5,4.5-4.48,5.06.05,10.11.01,15.17.02,2.03,0,3.73,1.37,4.11,3.31.05.28.05.57.05.86,0,4.88.01,9.75.02,14.63,0,.14,0,.27,0,.45h7.83c0-.98,0-1.95,0-2.93,0-8.94,0-17.88,0-26.83,0-.22.01-.44.04-.66.08-.67.62-1.13,1.3-1.13.65,0,1.21.52,1.26,1.18.02.33.02.66.02.99,0,10.14,0,20.28,0,30.42,0,1.14-.48,1.62-1.64,1.62-13.82,0-27.64,0-41.47,0-1.19,0-1.61-.48-1.61-1.81,0-12.06,0-24.12,0-36.19,0-6.9,0-13.79,0-20.69,0-1.99.97-3.46,2.74-4.07.51-.18,1.07-.27,1.61-.27,6.77-.02,13.55-.01,20.32-.01.92,0,1.42.35,1.57,1.08.15.69-.28,1.38-.97,1.53-.21.05-.44.05-.65.05-6.66,0-13.33,0-19.99,0-.25,0-.49.02-.74.05-.76.09-1.23.56-1.26,1.32-.03.91-.01,1.81-.01,2.72,0,16.79,0,33.58,0,50.36,0,1.08,0,2.16,0,3.27Zm10.49,0h7.91v-16.63c-2.19,0-4.34-.01-6.5,0-.58,0-1.08.29-1.3.85-.11.28-.12.62-.12.93-.01,4.79-.01,9.59-.01,14.38,0,.15.02.29.03.46Zm10.6,0h7.9c0-.45,0-.88,0-1.3.01-4.53.02-9.06.03-13.6,0-1.24-.49-1.74-1.74-1.74-1.91,0-3.82,0-5.73,0h-.46v16.64Z"/>
    <path class="cls-1" d="m50.07,96.51c12.67,0,25.33,0,38,0,.82,0,1.36-.38,1.44-1.1.03-.3-.05-.63-.17-.91-.57-1.4-1.17-2.78-1.75-4.17-1.45-3.53-2.88-7.05-4.32-10.58-.26-.64-.72-.93-1.41-.92-1.39.02-2.77.03-4.16.03-.27,0-.55-.01-.82-.07-.6-.12-1.02-.71-1-1.33.02-.59.46-1.19,1.05-1.19,1.89-.03,3.8-.09,5.68.06,1.44.11,2.47,1.03,3.03,2.37,1.19,2.85,2.34,5.71,3.51,8.56.83,2.03,1.67,4.05,2.52,6.08.39.93.61,1.88.33,2.88-.48,1.69-2,2.83-3.94,2.94-.14,0-.27,0-.41,0-25.13,0-50.26,0-75.38,0-1.23,0-2.34-.29-3.22-1.2-1.18-1.22-1.48-2.64-.87-4.21.69-1.79,1.45-3.55,2.18-5.33,1.29-3.13,2.59-6.26,3.87-9.39.53-1.31,1.38-2.26,2.78-2.65.26-.07.54-.13.81-.13,1.63-.01,3.27-.01,4.9-.01.5,0,.91.18,1.19.61.44.68.19,1.55-.56,1.85-.27.11-.59.16-.88.16-1.36.01-2.72,0-4.08,0-1.05,0-1.31.17-1.7,1.14-2,4.87-3.99,9.75-6.03,14.6-.4.95.18,1.94,1.26,1.92.18,0,.36,0,.54,0,12.54,0,25.09,0,37.63,0Z"/>
    <path class="cls-1" d="m85.32,29.11c-.06,2.83-.9,5.42-2.36,7.86-3.09,5.16-6.12,10.34-9.18,15.51-.51.86-1.01,1.73-1.54,2.58-.4.65-1.04.92-1.61.62-.33-.18-.63-.5-.83-.82-1.11-1.8-2.19-3.61-3.27-5.43-1.98-3.34-3.96-6.68-5.92-10.03-.81-1.37-1.68-2.72-2.34-4.16-2.41-5.3-1.97-10.36,1.62-15.02,2.82-3.65,6.62-5.45,11.2-5.46,4.12,0,7.65,1.53,10.43,4.57,2.51,2.75,3.86,6,3.8,9.78Zm-14.25,22.81c.85-1.4,1.66-2.74,2.46-4.08,2.26-3.83,4.48-7.68,6.79-11.47,1.29-2.13,2.26-4.32,2.38-6.87.15-2.95-.74-5.57-2.57-7.79-2.64-3.21-6.11-4.69-10.31-4.25-3.6.38-6.4,2.12-8.41,5.08-2.32,3.4-2.62,7.08-1.14,10.86.54,1.39,1.42,2.65,2.19,3.95,2.27,3.87,4.56,7.72,6.84,11.58.58.98,1.16,1.95,1.78,2.99Z"/>
    <path class="cls-1" d="m58.69,64.75c-1.26,0-2.53,0-3.79,0-.15,0-.3,0-.45-.01-.89-.07-1.37-.53-1.38-1.42-.02-2.61-.02-5.22,0-7.82,0-.85.48-1.31,1.33-1.38.3-.03.6-.02.91-.02,2.21,0,4.42,0,6.63,0,.23,0,.47,0,.7,0,1.2.05,1.66.49,1.67,1.7.02,2.5.02,5,.02,7.5,0,.88-.47,1.41-1.36,1.43-1.43.04-2.86.01-4.28.01,0,0,0,.01,0,.02Zm-.04-2.63s0,0,0-.01c.89,0,1.78-.01,2.68,0,.29,0,.38-.09.38-.37-.01-1.55-.02-3.1,0-4.65,0-.29-.07-.37-.37-.37-1.76,0-3.51,0-5.27-.03-.3,0-.41.08-.4.39.02,1.59.02,3.18.02,4.77,0,.27.15.27.34.27.88,0,1.76,0,2.63,0Z"/>
    <path class="cls-1" d="m41.35,64.74c-1.24,0-2.47,0-3.71,0-.26,0-.52-.01-.78-.04-.57-.06-.99-.44-1.11-1-.04-.2-.06-.41-.06-.61,0-2.42,0-4.83.02-7.25.01-1.33.44-1.73,1.78-1.74,2.38-.01,4.75,0,7.13,0,.36,0,.72,0,1.07.03.7.06,1.12.47,1.22,1.17.03.19.04.38.04.57,0,2.44,0,4.89,0,7.33,0,.62-.17,1.16-.79,1.4-.28.11-.62.14-.93.14-1.29.01-2.58,0-3.87,0h0Zm-3.03-2.68c.11.02.21.05.3.05,1.8,0,3.6,0,5.4,0,.29,0,.3-.13.3-.35,0-1.51,0-3.02,0-4.53,0-.16,0-.32,0-.44-.06-.05-.07-.07-.08-.07-1.88,0-3.76,0-5.64-.01-.26,0-.27.15-.27.35,0,1.04,0,2.09,0,3.13,0,.62,0,1.23,0,1.86Z"/>
    <path class="cls-1" d="m41.29,48.75c-1.35,0-2.69,0-4.04,0-1.03,0-1.51-.41-1.55-1.44-.04-1.15-.02-2.31-.02-3.46,0-1.19,0-2.39,0-3.58,0-.26,0-.52.03-.78.08-.85.56-1.33,1.42-1.34,2.79-.02,5.58-.02,8.36,0,.82,0,1.29.46,1.4,1.28.02.15.03.3.03.45,0,2.42,0,4.83,0,7.25,0,.22-.01.44-.06.65-.11.51-.47.85-.98.92-.34.04-.68.05-1.03.05-1.19,0-2.39,0-3.58,0,0,0,0,0,0,0Zm3-7.94h-5.93c-.02.05-.04.08-.04.1,0,1.66,0,3.32-.01,4.98,0,.27.16.27.35.27,1.77,0,3.54-.01,5.31-.02.1,0,.21-.02.32-.04v-5.29Z"/>
    <path class="cls-1" d="m53.07,43.43c0-1.26,0-2.52,0-3.79,0-.84.38-1.31,1.12-1.44.64-.12,1.29.3,1.43.94.04.21.06.44.06.65,0,1.99.02,3.98,0,5.97,0,.35.13.41.43.4.78-.02,1.56-.02,2.35,0,.82.01,1.27.32,1.47.95.24.75-.24,1.51-1.02,1.6-.27.03-.55.04-.82.04-1.11,0-2.22,0-3.33,0-1.22,0-1.69-.47-1.69-1.7,0-1.21,0-2.42,0-3.62Z"/>
    <path class="cls-1" d="m71.03,36.61c-4.44-.12-7.67-3.45-7.56-7.87.11-4.28,3.69-7.55,8.05-7.3,4.08.23,7.2,3.5,7.14,7.79-.06,4.24-3.52,7.38-7.64,7.37Zm.11-12.57c-2.78,0-5.06,2.2-5.07,4.89,0,2.61,2.02,5.08,5.01,5.08,2.7,0,4.95-2.22,4.96-4.94.02-2.76-2.19-5.02-4.91-5.03Z"/>
  </g>
</svg>