<?xml version="1.0" encoding="utf-8"?>
<!-- Generator: Adobe Illustrator 27.4.0, SVG Export Plug-In . SVG Version: 6.00 Build 0)  -->
<svg version="1.1" id="Capa_1" xmlns="http://www.w3.org/2000/svg" xmlns:xlink="http://www.w3.org/1999/xlink" x="0px" y="0px"
	 viewBox="0 0 100 100" style="enable-background:new 0 0 100 100;" xml:space="preserve">
<style type="text/css">
	.st0{fill:none;stroke:#ACC152;stroke-width:4;stroke-linecap:round;stroke-linejoin:round;}
	.st1{fill:#00588F;}
	.st2{fill:none;stroke:#00588F;stroke-linecap:round;stroke-linejoin:round;}
</style>
<g>
	<g>
		<path class="st0" d="M5.36,36.01c0.06,0.06,3.87-3.97,3.92-3.92c0.08,0.08-3.8,15.42-3.64,15.58c0.08,0.08,13.35-13.6,13.47-13.47
			c0.13,0.13-7.45,17.57-7.35,17.67C11.98,52.08,29.48,33.83,29.64,34c0.11,0.11-15.17,22.16-14.96,22.36
			c0.18,0.18,20.26-20.7,20.48-20.48c0.19,0.19-16.5,29.16-16.32,29.33c0.49,0.49,50.58-51.82,51.2-51.2
			c0.53,0.53-45.2,53.17-44.72,53.65c0.65,0.65,52.87-54.48,53.68-53.68c0.32,0.32-49.58,58.6-48.81,59.37
			c0.85,0.85,54.78-56.13,55.46-55.46c0.8,0.8-49.15,61.76-48.62,62.3c0.5,0.5,54.32-55.23,54.77-54.77
			c0.61,0.61-46.14,56.31-45.86,56.59c0.47,0.47,43.36-44.3,43.83-43.83c0.3,0.3-39.86,48.04-39.49,48.42
			c0.2,0.2,37.64-38.65,38.15-38.15c0.2,0.2-31.18,38.33-30.97,38.55c0.25,0.25,23.44-23.85,23.64-23.64"/>
	</g>
</g>
<path class="st1" d="M30.74,53.35c-4.83-3.33-5.2-9.84-1.41-13.66C33,36.01,38.62,36.21,42,39.65c1.94,1.98,2.85,4.38,2.57,7.14
	c-0.27,2.74-1.63,4.91-3.91,6.54c0.18,0.08,0.32,0.16,0.47,0.21c1.47,0.53,2.81,1.3,4.04,2.25c0.24,0.18,0.38,0.19,0.61-0.02
	c1.23-1.09,2.69-1.6,4.33-1.6c1.6,0,3.01,0.52,4.23,1.57c0.33,0.28,0.33,0.28,0.67,0.02c1.22-0.93,2.55-1.68,3.99-2.22
	c0.15-0.06,0.3-0.13,0.48-0.21c-2.67-1.96-4.05-4.55-3.93-7.84c0.08-2.33,1-4.38,2.69-5.97c3.65-3.44,9.09-3.34,12.54,0.15
	c1.95,1.97,2.81,4.38,2.53,7.12c-0.27,2.73-1.62,4.91-3.92,6.53c0.21,0.09,0.36,0.16,0.52,0.22c5.22,2.12,8.47,5.92,9.72,11.4
	c0.17,0.76,0.26,1.55,0.33,2.34c0.16,1.69-0.41,3.16-1.51,4.43c-0.96,1.1-2.12,1.93-3.38,2.66c-2.62,1.51-5.47,2.4-8.39,3.13
	c-2.1,0.52-4.22,0.91-6.37,1.17c-1.59,0.19-3.19,0.39-4.79,0.5c-3.25,0.22-6.5,0.27-9.75,0.06c-1.82-0.12-3.63-0.27-5.44-0.47
	c-2.07-0.23-4.12-0.61-6.15-1.09c-2.66-0.62-5.27-1.38-7.73-2.58c-1.63-0.79-3.18-1.7-4.44-3.02c-0.91-0.95-1.58-2.02-1.8-3.34
	c-0.15-0.89-0.07-1.77,0.05-2.65c0.51-3.64,2.1-6.76,4.75-9.3c1.48-1.42,3.2-2.5,5.13-3.23C30.35,53.51,30.53,53.43,30.74,53.35z
	 M44.15,57.91c-0.08-0.07-0.16-0.14-0.25-0.2c-3.2-2.53-6.86-3.33-10.81-2.57c-4.11,0.79-7.12,3.17-9.12,6.84
	c-0.91,1.67-1.31,3.48-1.47,5.36c-0.1,1.13,0.18,2.09,0.93,2.93c0.72,0.82,1.59,1.46,2.53,2c1.87,1.09,3.88,1.84,5.94,2.45
	c1.96,0.58,3.95,1.02,5.97,1.34c0.31,0.05,0.63,0.11,0.94,0.16c0.29-4.88,2.63-8.33,7.06-10.39c-1.12-0.98-1.89-2.18-2.23-3.64
	C43.31,60.71,43.51,59.29,44.15,57.91z M54.3,65.83c4.4,2.08,6.76,5.52,7.02,10.4c0.67-0.12,1.33-0.23,1.99-0.35
	c3.13-0.57,6.19-1.37,9.09-2.68c1.35-0.61,2.64-1.33,3.75-2.34c0.72-0.66,1.37-1.4,1.47-2.41c0.07-0.68,0.01-1.38-0.08-2.06
	c-0.49-3.76-2.3-6.75-5.33-9c-2.19-1.62-4.67-2.41-7.4-2.49c-3.01-0.09-5.72,0.75-8.15,2.5c-0.23,0.16-0.44,0.34-0.62,0.49
	C57.21,60.95,56.73,63.6,54.3,65.83z M64.5,39.35c-4.25-0.04-6.59,3.57-6.66,6.35c-0.1,4.02,3.14,6.82,6.55,6.84
	c3.47,0.02,6.66-2.66,6.66-6.7C71.06,42.34,68.04,39.28,64.5,39.35z M35.69,52.54c3.16,0.01,6.77-2.43,6.6-6.99
	c-0.13-3.42-3.11-6.33-6.8-6.22c-3.74,0.11-6.56,3.35-6.39,6.9C29.27,49.92,32.37,52.54,35.69,52.54z M58.94,76.55
	c0.18-2.73-1.12-6.03-4.17-7.85c-3.13-1.87-6.35-1.88-9.45,0.04c-2.84,1.77-4.16,4.44-4.15,7.81
	C47.12,77.17,53.02,77.19,58.94,76.55z M54.35,60.73c0.04-2.28-1.87-4.2-4.21-4.23c-2.32-0.03-4.29,1.82-4.33,4.08
	c-0.05,2.45,1.77,4.41,4.13,4.45C52.43,65.06,54.31,63.23,54.35,60.73z"/>
</svg>
